<?xml version="1.0" standalone="no"?>
<!DOCTYPE svg PUBLIC "-//W3C//DTD SVG 20010904//EN"
 "http://www.w3.org/TR/2001/REC-SVG-20010904/DTD/svg10.dtd">
<svg version="1.0" xmlns="http://www.w3.org/2000/svg"
 width="99.000000pt" height="99.000000pt" viewBox="0 0 99.000000 99.000000"
 preserveAspectRatio="xMidYMid meet">

<g transform="translate(0.000000,99.000000) scale(0.100000,-0.100000)"
fill="#000000" stroke="none">
<path d="M150 823 c-38 -13 -40 -31 -40 -291 0 -155 4 -261 10 -273 10 -18 25
-19 368 -19 265 0 361 3 370 12 9 9 12 85 12 279 0 265 0 268 -22 283 -19 14
-69 16 -353 15 -181 0 -337 -3 -345 -6z m685 -55 c3 -13 4 -111 3 -218 l-3
-195 -340 0 -340 0 -3 205 c-1 112 0 210 2 217 4 10 78 13 340 13 l336 0 5
-22z m-295 -478 c0 -17 -7 -20 -45 -20 -38 0 -45 3 -45 20 0 17 7 20 45 20 38
0 45 -3 45 -20z"/>
<path d="M390 725 c0 -3 6 -14 12 -25 10 -16 10 -23 -5 -37 -14 -15 -21 -15
-37 -5 -28 17 -31 15 -18 -13 6 -15 23 -28 37 -31 14 -3 34 -10 45 -15 27 -16
52 11 37 39 -6 11 -11 29 -11 40 0 20 -29 52 -48 52 -7 0 -12 -2 -12 -5z"/>
<path d="M593 703 c-21 -11 -33 -24 -33 -37 0 -25 -106 -130 -124 -123 -19 7
-99 -76 -94 -98 1 -10 11 -23 20 -29 15 -9 25 -3 63 34 28 27 43 50 40 59 -8
21 93 121 122 121 16 0 28 11 42 39 28 53 19 61 -36 34z"/>
<path d="M524 536 c-15 -12 -17 -17 -6 -27 6 -7 12 -22 12 -34 0 -30 28 -65
53 -65 16 0 18 3 9 12 -16 16 -15 43 3 58 13 10 19 10 35 -5 19 -18 20 -17 20
3 0 24 -35 52 -65 52 -12 0 -26 5 -31 10 -7 7 -17 5 -30 -4z"/>
<path d="M380 179 c-8 -5 -27 -13 -42 -19 -16 -5 -28 -14 -28 -20 0 -17 41
-21 200 -18 138 3 155 5 158 21 2 11 -3 17 -15 17 -11 0 -28 7 -39 15 -22 17
-209 20 -234 4z"/>
</g>
</svg>
