<?xml version="1.0" standalone="no"?>
<!DOCTYPE svg PUBLIC "-//W3C//DTD SVG 20010904//EN"
 "http://www.w3.org/TR/2001/REC-SVG-20010904/DTD/svg10.dtd">
<svg version="1.0" xmlns="http://www.w3.org/2000/svg"
 width="192.000000pt" height="192.000000pt" viewBox="0 0 192.000000 192.000000"
 preserveAspectRatio="xMidYMid meet">
<metadata>
Created by potrace 1.14, written by Peter Selinger 2001-2017
</metadata>
<g transform="translate(0.000000,192.000000) scale(0.100000,-0.100000)"
fill="#000000" stroke="none">
<path d="M0 960 l0 -960 960 0 960 0 0 960 0 960 -960 0 -960 0 0 -960z m1603
659 c26 -7 44 -21 57 -42 19 -31 20 -54 20 -519 l0 -486 -26 -31 -26 -31 -668
0 -668 0 -26 31 -26 31 0 486 c0 466 1 488 20 519 12 20 32 36 52 42 47 13
1242 14 1291 0z m-438 -1199 c12 -11 46 -28 75 -38 68 -22 84 -46 51 -73 -22
-18 -41 -19 -325 -19 -165 0 -311 3 -323 6 -27 7 -39 39 -23 59 6 8 35 21 64
29 29 9 61 25 71 36 17 19 30 20 203 20 172 0 187 -1 207 -20z"/>
<path d="M332 1138 l3 -403 625 0 625 0 3 403 2 402 -630 0 -630 0 2 -402z
m524 268 c27 -27 34 -42 34 -74 0 -25 9 -52 24 -75 l24 -35 -32 -31 c-37 -36
-47 -38 -70 -12 -10 11 -38 22 -67 26 -35 5 -58 15 -78 36 -54 53 -50 123 5
80 34 -27 52 -27 81 1 29 27 29 39 -2 68 -36 34 -32 50 11 50 28 0 44 -8 70
-34z m388 2 c8 -13 3 -33 -24 -88 -33 -67 -35 -70 -70 -70 -32 0 -46 -11 -140
-105 -99 -99 -103 -105 -87 -123 16 -17 12 -22 -66 -99 -77 -76 -95 -87 -139
-84 -30 2 -58 38 -58 74 0 27 13 45 85 117 80 79 85 83 103 67 17 -16 23 -11
120 86 93 93 102 106 102 140 0 35 2 38 68 71 72 38 89 40 106 14z m-168 -317
c13 -10 45 -22 71 -26 60 -9 113 -58 113 -104 0 -36 -18 -41 -45 -11 -24 26
-60 25 -79 -2 -22 -30 -20 -42 9 -76 14 -17 25 -33 25 -36 0 -11 -58 -6 -85 6
-32 14 -65 75 -65 119 0 20 -9 42 -22 56 l-22 23 34 35 c19 19 36 35 38 35 2
0 15 -8 28 -19z"/>
<path d="M893 643 c-18 -7 -16 -50 3 -57 9 -3 37 -6 64 -6 63 0 80 7 80 35 0
13 -7 26 -16 29 -18 7 -113 7 -131 -1z"/>
</g>
</svg>
